<svg xmlns="http://www.w3.org/2000/svg" width="512" height="512" viewBox="0 0 409.6 409.6"><path d="M173.811 2.312c48.765-7.444 100.13 3.219 141.58 30.103 37.97 24.187 67.49 61.345 82.411 103.834 19.213 53.217 14.76 114.367-11.898 164.268-22.627 43.107-61.216 77.6-106.664 95.089-45.384 17.88-97.204 18.66-143.075 2.146-47.886-16.743-88.75-52.242-112.353-97.072-27.698-51.787-31.567-115.505-9.85-170.12 25.357-67.228 88.75-117.942 159.85-128.248z" style="fill:#229c6c"/><path d="M122.304 103.136C144.672 79.264 179.232 71.04 210.912 72c30.688.992 57.728 22.304 70.144 49.632-5.696 6.048-13.28 10.08-19.968 14.976-4.224 3.712-10.912.768-12.928-3.904-6.432-10.24-14.496-19.808-25.216-25.76-16.224-9.344-36.608-8.672-53.696-2.048-13.024 5.184-24.512 17.728-23.296 32.544.416 14.976 14.944 23.36 26.912 29.088 31.424 13.728 65.92 19.104 96.864 34.08 15.552 7.904 30.752 19.104 37.888 35.52 9.408 23.104 5.248 51.232-10.848 70.4-17.792 21.76-45.696 32.352-72.896 35.936-23.488 3.808-48.992-.224-68.48-14.432-12.576-8.96-21.728-21.6-29.824-34.496 8.032-5.696 16-11.52 24.608-16.256 8.832-1.568 11.488 8.736 16.224 13.888 19.552 26.432 60.128 32.096 86.784 13.376 10.464-7.104 17.92-20.288 14.336-33.088-2.976-14.752-17.024-23.488-29.696-29.376-28.704-12.128-60-17.056-88.32-30.208-15.712-7.584-30.624-18.816-38.304-34.88-10.816-23.968-7.296-54.528 11.104-73.856z" style="fill:#fff"/></svg>